<svg width="170" height="169" viewBox="0 0 170 169" fill="none" xmlns="http://www.w3.org/2000/svg">
<path d="M100.8 8.82049L85.07 24.4805L69.51 8.98049C57.52 -2.65951 37.04 -1.25951 26.87 12.0005L6.73 36.9305C3.01 41.7905 1 47.7205 1 53.8105V74.6705C1 90.0305 13.5 102.47 28.91 102.47H64.29C71.8 102.47 77.89 108.54 77.89 116.02V140.72C77.89 148.2 71.8 154.27 64.29 154.27H28.91C21.4 154.27 15.31 148.2 15.31 140.72V112.46L15.15 112.41L14.68 112.25C10.17 110.74 6.06 108.38 2.53 105.35L1.39 104.37L1 104.04V140.72C1 156.08 13.5 168.52 28.91 168.52H64.29C79.7 168.52 92.2 156.07 92.2 140.72V116.02C92.2 100.66 79.7 88.2205 64.29 88.2205H28.91C21.4 88.2205 15.31 82.1505 15.31 74.6705V53.8105C15.31 50.8405 16.29 47.9605 18.09 45.6005L38.23 20.6605C43.18 14.2005 53.66 13.5005 59.51 19.1805L74.85 34.5705C73.74 35.7805 72.55 37.1605 71.35 38.6905C67.06 44.1605 61.75 52.6705 61.75 62.1905C61.75 75.0505 72.2 85.4905 85.11 85.4905C98.02 85.4905 108.47 75.0505 108.47 62.1905C108.47 52.6605 103.12 44.1405 98.81 38.6705C97.6 37.1405 96.4 35.7605 95.29 34.5605L110.76 19.0405C116.4 13.5905 126.16 14.1005 131.26 20.0605L151.93 45.6005C153.98 48.0105 154.81 51.1405 154.81 54.4305V140.73C154.81 148.21 148.72 154.28 141.21 154.28H102.03L101.98 154.44L101.82 154.91C100.29 159.4 97.9 163.5 94.85 167.01L93.86 168.15L93.52 168.54H141.21C156.62 168.54 169.12 156.09 169.12 140.74V54.4305C169.12 47.8705 167.14 41.4405 162.83 36.3805L142.16 10.8405L141.98 10.9805L142.16 10.8305C131.7 -1.40951 112.36 -2.37951 100.78 8.82049H100.8ZM82.63 47.4705C83.46 46.4105 84.3 45.4305 85.09 44.5505C85.89 45.4305 86.74 46.4205 87.58 47.4905C91.39 52.3205 94.18 57.6205 94.18 62.1905C94.18 67.2005 90.12 71.2405 85.12 71.2405C80.12 71.2405 76.07 67.2005 76.07 62.1905C76.07 57.6005 78.84 52.3005 82.63 47.4705Z" fill="#5D750F" stroke="white" stroke-width="0.09"/>
</svg>
